ply
format ascii 1.0
element vertex 1000
property float x
property float y
property float z
element face 99
property list uchar int vertex_indices
end_header
0.150000 0.000000 0.000000
0.149996 0.000942 0.000251
0.149984 0.001885 0.000503
0.149964 0.002827 0.000754
0.149937 0.003769 0.001005
0.149901 0.004711 0.001256
0.149858 0.005652 0.001507
0.149807 0.006593 0.001757
0.149747 0.007533 0.002007
0.149680 0.008473 0.002257
0.149606 0.009412 0.002507
0.149523 0.010351 0.002756
0.149432 0.011288 0.003005
0.149334 0.012225 0.003253
0.149227 0.013161 0.003500
0.149113 0.014095 0.003748
0.148991 0.015029 0.003994
0.148862 0.015961 0.004240
0.148724 0.016892 0.004485
0.148579 0.017822 0.004730
0.148426 0.018751 0.004974
0.148265 0.019677 0.005217
0.148097 0.020603 0.005459
0.147921 0.021527 0.005700
0.147737 0.022449 0.005941
0.147545 0.023369 0.006180
0.147346 0.024287 0.006419
0.147139 0.025204 0.006656
0.146925 0.026118 0.006893
0.146703 0.027031 0.007128
0.146473 0.027941 0.007362
0.146236 0.028849 0.007596
0.145991 0.029755 0.007827
0.145739 0.030659 0.008058
0.145479 0.031560 0.008288
0.145212 0.032459 0.008516
0.144938 0.033355 0.008742
0.144656 0.034249 0.008968
0.144367 0.035139 0.009192
0.144070 0.036028 0.009414
0.143766 0.036913 0.009635
0.143455 0.037795 0.009855
0.143136 0.038675 0.010072
0.142811 0.039551 0.010289
0.142478 0.040425 0.010503
0.142138 0.041295 0.010717
0.141790 0.042162 0.010928
0.141436 0.043026 0.011138
0.141075 0.043886 0.011345
0.140706 0.044743 0.011551
0.140331 0.045596 0.011756
0.139949 0.046446 0.011958
0.139560 0.047293 0.012159
0.139164 0.048135 0.012357
0.138761 0.048974 0.012554
0.138351 0.049809 0.012748
0.137934 0.050641 0.012941
0.137511 0.051468 0.013132
0.137081 0.052291 0.013320
0.136645 0.053111 0.013507
0.136202 0.053926 0.013691
0.135752 0.054737 0.013873
0.135296 0.055544 0.014053
0.134834 0.056347 0.014231
0.134365 0.057145 0.014406
0.133889 0.057939 0.014579
0.133407 0.058728 0.014750
0.132919 0.059513 0.014919
0.132425 0.060294 0.015085
0.131925 0.061070 0.015249
0.131418 0.061841 0.015410
0.130906 0.062607 0.015569
0.130387 0.063369 0.015726
0.129862 0.064126 0.015880
0.129332 0.064877 0.016031
0.128795 0.065624 0.016180
0.128253 0.066366 0.016327
0.127705 0.067103 0.016471
0.127151 0.067835 0.016612
0.126591 0.068562 0.016751
0.126026 0.069284 0.016887
0.125456 0.070000 0.017020
0.124879 0.070711 0.017151
0.124298 0.071417 0.017278
0.123711 0.072117 0.017404
0.123118 0.072812 0.017526
0.122520 0.073501 0.017646
0.121917 0.074185 0.017763
0.121309 0.074863 0.017877
0.120696 0.075536 0.017988
0.120077 0.076203 0.018097
0.119454 0.076865 0.018202
0.118825 0.077520 0.018305
0.118192 0.078170 0.018405
0.117554 0.078814 0.018502
0.116911 0.079453 0.018596
0.116264 0.080085 0.018687
0.115611 0.080712 0.018775
0.114954 0.081332 0.018860
0.114293 0.081947 0.018942
0.113627 0.082555 0.019021
0.112957 0.083157 0.019097
0.112282 0.083754 0.019170
0.111603 0.084344 0.019241
0.110920 0.084928 0.019308
0.110233 0.085505 0.019372
0.109541 0.086077 0.019433
0.108846 0.086642 0.019491
0.108146 0.087201 0.019545
0.107443 0.087753 0.019597
0.106736 0.088300 0.019646
0.106025 0.088839 0.019691
0.105310 0.089373 0.019734
0.104592 0.089900 0.019773
0.103870 0.090420 0.019809
0.103144 0.090934 0.019842
0.102416 0.091441 0.019872
0.101683 0.091942 0.019899
0.100948 0.092437 0.019923
0.100209 0.092924 0.019943
0.099467 0.093405 0.019961
0.098721 0.093880 0.019975
0.097973 0.094348 0.019986
0.097222 0.094809 0.019994
0.096468 0.095263 0.019998
0.095711 0.095711 0.020000
0.094951 0.096152 0.019998
0.094188 0.096586 0.019994
0.093423 0.097013 0.019986
0.092655 0.097434 0.019975
0.091885 0.097848 0.019961
0.091112 0.098255 0.019943
0.090337 0.098655 0.019923
0.089560 0.099048 0.019899
0.088780 0.099434 0.019872
0.087998 0.099814 0.019842
0.087214 0.100187 0.019809
0.086428 0.100552 0.019773
0.085640 0.100911 0.019734
0.084850 0.101263 0.019691
0.084058 0.101609 0.019646
0.083264 0.101947 0.019597
0.082469 0.102278 0.019545
0.081672 0.102602 0.019491
0.080873 0.102920 0.019433
0.080073 0.103230 0.019372
0.079272 0.103534 0.019308
0.078469 0.103830 0.019241
0.077665 0.104120 0.019170
0.076860 0.104402 0.019097
0.076053 0.104678 0.019021
0.075245 0.104947 0.018942
0.074437 0.105209 0.018860
0.073627 0.105464 0.018775
0.072817 0.105711 0.018687
0.072005 0.105952 0.018596
0.071193 0.106187 0.018502
0.070380 0.106414 0.018405
0.069567 0.106634 0.018305
0.068753 0.106847 0.018202
0.067938 0.107053 0.018097
0.067123 0.107253 0.017988
0.066308 0.107445 0.017877
0.065492 0.107631 0.017763
0.064676 0.107810 0.017646
0.063860 0.107982 0.017526
0.063044 0.108147 0.017404
0.062228 0.108305 0.017278
0.061412 0.108457 0.017151
0.060596 0.108601 0.017020
0.059780 0.108739 0.016887
0.058964 0.108870 0.016751
0.058149 0.108994 0.016612
0.057333 0.109111 0.016471
0.056519 0.109222 0.016327
0.055704 0.109326 0.016180
0.054891 0.109423 0.016031
0.054078 0.109514 0.015880
0.053265 0.109598 0.015726
0.052453 0.109675 0.015569
0.051642 0.109746 0.015410
0.050832 0.109810 0.015249
0.050023 0.109867 0.015085
0.049215 0.109918 0.014919
0.048407 0.109962 0.014750
0.047601 0.110000 0.014579
0.046796 0.110031 0.014406
0.045992 0.110056 0.014231
0.045190 0.110074 0.014053
0.044388 0.110086 0.013873
0.043588 0.110091 0.013691
0.042790 0.110090 0.013507
0.041993 0.110083 0.013320
0.041197 0.110070 0.013132
0.040403 0.110050 0.012941
0.039611 0.110024 0.012748
0.038820 0.109991 0.012554
0.038032 0.109953 0.012357
0.037245 0.109908 0.012159
0.036459 0.109857 0.011958
0.035676 0.109800 0.011756
0.034895 0.109737 0.011551
0.034116 0.109668 0.011345
0.033339 0.109593 0.011138
0.032564 0.109512 0.010928
0.031791 0.109425 0.010717
0.031020 0.109332 0.010503
0.030252 0.109233 0.010289
0.029486 0.109129 0.010072
0.028722 0.109018 0.009855
0.027961 0.108902 0.009635
0.027203 0.108780 0.009414
0.026446 0.108653 0.009192
0.025693 0.108519 0.008968
0.024942 0.108381 0.008742
0.024194 0.108236 0.008516
0.023448 0.108086 0.008288
0.022705 0.107931 0.008058
0.021965 0.107770 0.007827
0.021228 0.107604 0.007596
0.020494 0.107432 0.007362
0.019762 0.107255 0.007128
0.019034 0.107073 0.006893
0.018309 0.106885 0.006656
0.017586 0.106692 0.006419
0.016867 0.106494 0.006180
0.016151 0.106291 0.005941
0.015438 0.106083 0.005700
0.014728 0.105870 0.005459
0.014022 0.105652 0.005217
0.013319 0.105429 0.004974
0.012619 0.105201 0.004730
0.011922 0.104968 0.004485
0.011229 0.104730 0.004240
0.010540 0.104488 0.003994
0.009854 0.104241 0.003748
0.009171 0.103989 0.003500
0.008492 0.103733 0.003253
0.007816 0.103472 0.003005
0.007144 0.103206 0.002756
0.006476 0.102936 0.002507
0.005812 0.102662 0.002257
0.005151 0.102383 0.002007
0.004493 0.102100 0.001757
0.003840 0.101812 0.001507
0.003190 0.101520 0.001256
0.002545 0.101225 0.001005
0.001903 0.100924 0.000754
0.001264 0.100620 0.000503
0.000630 0.100312 0.000251
0.000000 0.100000 0.000000
-0.000626 0.099684 -0.000251
-0.001249 0.099364 -0.000503
-0.001867 0.099040 -0.000754
-0.002481 0.098712 -0.001005
-0.003092 0.098381 -0.001256
-0.003698 0.098046 -0.001507
-0.004300 0.097707 -0.001757
-0.004898 0.097365 -0.002007
-0.005492 0.097019 -0.002257
-0.006082 0.096669 -0.002507
-0.006668 0.096316 -0.002756
-0.007249 0.095960 -0.003005
-0.007826 0.095601 -0.003253
-0.008399 0.095238 -0.003500
-0.008968 0.094872 -0.003748
-0.009533 0.094502 -0.003994
-0.010093 0.094130 -0.004240
-0.010649 0.093754 -0.004485
-0.011201 0.093376 -0.004730
-0.011748 0.092994 -0.004974
-0.012291 0.092610 -0.005217
-0.012830 0.092222 -0.005459
-0.013364 0.091832 -0.005700
-0.013894 0.091439 -0.005941
-0.014420 0.091043 -0.006180
-0.014941 0.090645 -0.006419
-0.015458 0.090244 -0.006656
-0.015971 0.089840 -0.006893
-0.016479 0.089434 -0.007128
-0.016983 0.089026 -0.007362
-0.017482 0.088615 -0.007596
-0.017977 0.088201 -0.007827
-0.018467 0.087785 -0.008058
-0.018953 0.087367 -0.008288
-0.019435 0.086947 -0.008516
-0.019912 0.086525 -0.008742
-0.020385 0.086100 -0.008968
-0.020853 0.085674 -0.009192
-0.021317 0.085245 -0.009414
-0.021777 0.084814 -0.009635
-0.022232 0.084382 -0.009855
-0.022682 0.083948 -0.010072
-0.023128 0.083511 -0.010289
-0.023570 0.083073 -0.010503
-0.024007 0.082634 -0.010717
-0.024440 0.082192 -0.010928
-0.024869 0.081749 -0.011138
-0.025292 0.081305 -0.011345
-0.025712 0.080859 -0.011551
-0.026127 0.080411 -0.011756
-0.026538 0.079962 -0.011958
-0.026944 0.079512 -0.012159
-0.027346 0.079060 -0.012357
-0.027744 0.078607 -0.012554
-0.028137 0.078152 -0.012748
-0.028525 0.077697 -0.012941
-0.028910 0.077240 -0.013132
-0.029290 0.076783 -0.013320
-0.029665 0.076324 -0.013507
-0.030037 0.075864 -0.013691
-0.030404 0.075403 -0.013873
-0.030766 0.074941 -0.014053
-0.031125 0.074479 -0.014231
-0.031479 0.074015 -0.014406
-0.031828 0.073551 -0.014579
-0.032174 0.073086 -0.014750
-0.032515 0.072621 -0.014919
-0.032852 0.072154 -0.015085
-0.033185 0.071687 -0.015249
-0.033514 0.071220 -0.015410
-0.033838 0.070752 -0.015569
-0.034158 0.070283 -0.015726
-0.034474 0.069814 -0.015880
-0.034786 0.069345 -0.016031
-0.035094 0.068875 -0.016180
-0.035397 0.068405 -0.016327
-0.035697 0.067935 -0.016471
-0.035992 0.067464 -0.016612
-0.036284 0.066993 -0.016751
-0.036571 0.066522 -0.016887
-0.036854 0.066051 -0.017020
-0.037134 0.065580 -0.017151
-0.037409 0.065109 -0.017278
-0.037681 0.064638 -0.017404
-0.037948 0.064167 -0.017526
-0.038212 0.063695 -0.017646
-0.038471 0.063224 -0.017763
-0.038727 0.062753 -0.017877
-0.038979 0.062283 -0.017988
-0.039227 0.061812 -0.018097
-0.039472 0.061342 -0.018202
-0.039712 0.060872 -0.018305
-0.039949 0.060402 -0.018405
-0.040182 0.059933 -0.018502
-0.040411 0.059464 -0.018596
-0.040637 0.058995 -0.018687
-0.040859 0.058527 -0.018775
-0.041078 0.058059 -0.018860
-0.041293 0.057592 -0.018942
-0.041504 0.057125 -0.019021
-0.041712 0.056659 -0.019097
-0.041916 0.056194 -0.019170
-0.042117 0.055729 -0.019241
-0.042314 0.055264 -0.019308
-0.042508 0.054801 -0.019372
-0.042698 0.054338 -0.019433
-0.042886 0.053876 -0.019491
-0.043069 0.053415 -0.019545
-0.043250 0.052954 -0.019597
-0.043427 0.052494 -0.019646
-0.043601 0.052035 -0.019691
-0.043772 0.051577 -0.019734
-0.043939 0.051120 -0.019773
-0.044103 0.050664 -0.019809
-0.044265 0.050208 -0.019842
-0.044423 0.049754 -0.019872
-0.044578 0.049300 -0.019899
-0.044730 0.048848 -0.019923
-0.044879 0.048397 -0.019943
-0.045024 0.047946 -0.019961
-0.045167 0.047497 -0.019975
-0.045308 0.047049 -0.019986
-0.045445 0.046602 -0.019994
-0.045579 0.046156 -0.019998
-0.045711 0.045711 -0.020000
-0.045839 0.045267 -0.019998
-0.045965 0.044824 -0.019994
-0.046089 0.044383 -0.019986
-0.046209 0.043943 -0.019975
-0.046327 0.043504 -0.019961
-0.046442 0.043066 -0.019943
-0.046555 0.042630 -0.019923
-0.046665 0.042195 -0.019899
-0.046773 0.041761 -0.019872
-0.046878 0.041328 -0.019842
-0.046980 0.040897 -0.019809
-0.047081 0.040467 -0.019773
-0.047178 0.040038 -0.019734
-0.047274 0.039611 -0.019691
-0.047367 0.039185 -0.019646
-0.047458 0.038761 -0.019597
-0.047546 0.038337 -0.019545
-0.047632 0.037916 -0.019491
-0.047716 0.037495 -0.019433
-0.047798 0.037076 -0.019372
-0.047878 0.036658 -0.019308
-0.047956 0.036242 -0.019241
-0.048031 0.035827 -0.019170
-0.048105 0.035414 -0.019097
-0.048176 0.035002 -0.019021
-0.048246 0.034592 -0.018942
-0.048313 0.034183 -0.018860
-0.048379 0.033775 -0.018775
-0.048443 0.033369 -0.018687
-0.048505 0.032964 -0.018596
-0.048565 0.032561 -0.018502
-0.048624 0.032159 -0.018405
-0.048680 0.031758 -0.018305
-0.048735 0.031359 -0.018202
-0.048788 0.030962 -0.018097
-0.048840 0.030566 -0.017988
-0.048890 0.030171 -0.017877
-0.048938 0.029778 -0.017763
-0.048985 0.029387 -0.017646
-0.049030 0.028996 -0.017526
-0.049074 0.028608 -0.017404
-0.049116 0.028220 -0.017278
-0.049157 0.027835 -0.017151
-0.049197 0.027450 -0.017020
-0.049235 0.027067 -0.016887
-0.049272 0.026686 -0.016751
-0.049307 0.026305 -0.016612
-0.049341 0.025927 -0.016471
-0.049374 0.025550 -0.016327
-0.049406 0.025174 -0.016180
-0.049437 0.024799 -0.016031
-0.049466 0.024426 -0.015880
-0.049494 0.024054 -0.015726
-0.049521 0.023684 -0.015569
-0.049547 0.023315 -0.015410
-0.049572 0.022948 -0.015249
-0.049596 0.022581 -0.015085
-0.049619 0.022216 -0.014919
-0.049641 0.021853 -0.014750
-0.049662 0.021491 -0.014579
-0.049682 0.021130 -0.014406
-0.049701 0.020770 -0.014231
-0.049719 0.020412 -0.014053
-0.049737 0.020055 -0.013873
-0.049753 0.019699 -0.013691
-0.049769 0.019344 -0.013507
-0.049784 0.018991 -0.013320
-0.049799 0.018639 -0.013132
-0.049812 0.018288 -0.012941
-0.049825 0.017938 -0.012748
-0.049837 0.017590 -0.012554
-0.049849 0.017242 -0.012357
-0.049860 0.016896 -0.012159
-0.049870 0.016551 -0.011958
-0.049880 0.016207 -0.011756
-0.049889 0.015864 -0.011551
-0.049898 0.015522 -0.011345
-0.049906 0.015182 -0.011138
-0.049914 0.014842 -0.010928
-0.049921 0.014503 -0.010717
-0.049928 0.014166 -0.010503
-0.049934 0.013829 -0.010289
-0.049940 0.013494 -0.010072
-0.049946 0.013159 -0.009855
-0.049951 0.012825 -0.009635
-0.049955 0.012492 -0.009414
-0.049960 0.012160 -0.009192
-0.049964 0.011829 -0.008968
-0.049968 0.011499 -0.008742
-0.049971 0.011170 -0.008516
-0.049974 0.010841 -0.008288
-0.049977 0.010514 -0.008058
-0.049980 0.010187 -0.007827
-0.049982 0.009860 -0.007596
-0.049984 0.009535 -0.007362
-0.049986 0.009210 -0.007128
-0.049988 0.008886 -0.006893
-0.049990 0.008563 -0.006656
-0.049991 0.008240 -0.006419
-0.049992 0.007918 -0.006180
-0.049994 0.007597 -0.005941
-0.049995 0.007276 -0.005700
-0.049995 0.006955 -0.005459
-0.049996 0.006635 -0.005217
-0.049997 0.006316 -0.004974
-0.049997 0.005997 -0.004730
-0.049998 0.005679 -0.004485
-0.049998 0.005361 -0.004240
-0.049999 0.005043 -0.003994
-0.049999 0.004726 -0.003748
-0.049999 0.004410 -0.003500
-0.049999 0.004093 -0.003253
-0.050000 0.003777 -0.003005
-0.050000 0.003461 -0.002756
-0.050000 0.003146 -0.002507
-0.050000 0.002830 -0.002257
-0.050000 0.002515 -0.002007
-0.050000 0.002201 -0.001757
-0.050000 0.001886 -0.001507
-0.050000 0.001571 -0.001256
-0.050000 0.001257 -0.001005
-0.050000 0.000943 -0.000754
-0.050000 0.000628 -0.000503
-0.050000 0.000314 -0.000251
-0.050000 0.000000 -0.000000
-0.050000 -0.000314 0.000251
-0.050000 -0.000628 0.000503
-0.050000 -0.000943 0.000754
-0.050000 -0.001257 0.001005
-0.050000 -0.001571 0.001256
-0.050000 -0.001886 0.001507
-0.050000 -0.002201 0.001757
-0.050000 -0.002515 0.002007
-0.050000 -0.002830 0.002257
-0.050000 -0.003146 0.002507
-0.050000 -0.003461 0.002756
-0.050000 -0.003777 0.003005
-0.049999 -0.004093 0.003253
-0.049999 -0.004410 0.003500
-0.049999 -0.004726 0.003748
-0.049999 -0.005043 0.003994
-0.049998 -0.005361 0.004240
-0.049998 -0.005679 0.004485
-0.049997 -0.005997 0.004730
-0.049997 -0.006316 0.004974
-0.049996 -0.006635 0.005217
-0.049995 -0.006955 0.005459
-0.049995 -0.007276 0.005700
-0.049994 -0.007597 0.005941
-0.049992 -0.007918 0.006180
-0.049991 -0.008240 0.006419
-0.049990 -0.008563 0.006656
-0.049988 -0.008886 0.006893
-0.049986 -0.009210 0.007128
-0.049984 -0.009535 0.007362
-0.049982 -0.009860 0.007596
-0.049980 -0.010187 0.007827
-0.049977 -0.010514 0.008058
-0.049974 -0.010841 0.008288
-0.049971 -0.011170 0.008516
-0.049968 -0.011499 0.008742
-0.049964 -0.011829 0.008968
-0.049960 -0.012160 0.009192
-0.049955 -0.012492 0.009414
-0.049951 -0.012825 0.009635
-0.049946 -0.013159 0.009855
-0.049940 -0.013494 0.010072
-0.049934 -0.013829 0.010289
-0.049928 -0.014166 0.010503
-0.049921 -0.014503 0.010717
-0.049914 -0.014842 0.010928
-0.049906 -0.015182 0.011138
-0.049898 -0.015522 0.011345
-0.049889 -0.015864 0.011551
-0.049880 -0.016207 0.011756
-0.049870 -0.016551 0.011958
-0.049860 -0.016896 0.012159
-0.049849 -0.017242 0.012357
-0.049837 -0.017590 0.012554
-0.049825 -0.017938 0.012748
-0.049812 -0.018288 0.012941
-0.049799 -0.018639 0.013132
-0.049784 -0.018991 0.013320
-0.049769 -0.019344 0.013507
-0.049753 -0.019699 0.013691
-0.049737 -0.020055 0.013873
-0.049719 -0.020412 0.014053
-0.049701 -0.020770 0.014231
-0.049682 -0.021130 0.014406
-0.049662 -0.021491 0.014579
-0.049641 -0.021853 0.014750
-0.049619 -0.022216 0.014919
-0.049596 -0.022581 0.015085
-0.049572 -0.022948 0.015249
-0.049547 -0.023315 0.015410
-0.049521 -0.023684 0.015569
-0.049494 -0.024054 0.015726
-0.049466 -0.024426 0.015880
-0.049437 -0.024799 0.016031
-0.049406 -0.025174 0.016180
-0.049374 -0.025550 0.016327
-0.049341 -0.025927 0.016471
-0.049307 -0.026305 0.016612
-0.049272 -0.026686 0.016751
-0.049235 -0.027067 0.016887
-0.049197 -0.027450 0.017020
-0.049157 -0.027835 0.017151
-0.049116 -0.028220 0.017278
-0.049074 -0.028608 0.017404
-0.049030 -0.028996 0.017526
-0.048985 -0.029387 0.017646
-0.048938 -0.029778 0.017763
-0.048890 -0.030171 0.017877
-0.048840 -0.030566 0.017988
-0.048788 -0.030962 0.018097
-0.048735 -0.031359 0.018202
-0.048680 -0.031758 0.018305
-0.048624 -0.032159 0.018405
-0.048565 -0.032561 0.018502
-0.048505 -0.032964 0.018596
-0.048443 -0.033369 0.018687
-0.048379 -0.033775 0.018775
-0.048313 -0.034183 0.018860
-0.048246 -0.034592 0.018942
-0.048176 -0.035002 0.019021
-0.048105 -0.035414 0.019097
-0.048031 -0.035827 0.019170
-0.047956 -0.036242 0.019241
-0.047878 -0.036658 0.019308
-0.047798 -0.037076 0.019372
-0.047716 -0.037495 0.019433
-0.047632 -0.037916 0.019491
-0.047546 -0.038337 0.019545
-0.047458 -0.038761 0.019597
-0.047367 -0.039185 0.019646
-0.047274 -0.039611 0.019691
-0.047178 -0.040038 0.019734
-0.047081 -0.040467 0.019773
-0.046980 -0.040897 0.019809
-0.046878 -0.041328 0.019842
-0.046773 -0.041761 0.019872
-0.046665 -0.042195 0.019899
-0.046555 -0.042630 0.019923
-0.046442 -0.043066 0.019943
-0.046327 -0.043504 0.019961
-0.046209 -0.043943 0.019975
-0.046089 -0.044383 0.019986
-0.045965 -0.044824 0.019994
-0.045839 -0.045267 0.019998
-0.045711 -0.045711 0.020000
-0.045579 -0.046156 0.019998
-0.045445 -0.046602 0.019994
-0.045308 -0.047049 0.019986
-0.045167 -0.047497 0.019975
-0.045024 -0.047946 0.019961
-0.044879 -0.048397 0.019943
-0.044730 -0.048848 0.019923
-0.044578 -0.049300 0.019899
-0.044423 -0.049754 0.019872
-0.044265 -0.050208 0.019842
-0.044103 -0.050664 0.019809
-0.043939 -0.051120 0.019773
-0.043772 -0.051577 0.019734
-0.043601 -0.052035 0.019691
-0.043427 -0.052494 0.019646
-0.043250 -0.052954 0.019597
-0.043069 -0.053415 0.019545
-0.042886 -0.053876 0.019491
-0.042698 -0.054338 0.019433
-0.042508 -0.054801 0.019372
-0.042314 -0.055264 0.019308
-0.042117 -0.055729 0.019241
-0.041916 -0.056194 0.019170
-0.041712 -0.056659 0.019097
-0.041504 -0.057125 0.019021
-0.041293 -0.057592 0.018942
-0.041078 -0.058059 0.018860
-0.040859 -0.058527 0.018775
-0.040637 -0.058995 0.018687
-0.040411 -0.059464 0.018596
-0.040182 -0.059933 0.018502
-0.039949 -0.060402 0.018405
-0.039712 -0.060872 0.018305
-0.039472 -0.061342 0.018202
-0.039227 -0.061812 0.018097
-0.038979 -0.062283 0.017988
-0.038727 -0.062753 0.017877
-0.038471 -0.063224 0.017763
-0.038212 -0.063695 0.017646
-0.037948 -0.064167 0.017526
-0.037681 -0.064638 0.017404
-0.037409 -0.065109 0.017278
-0.037134 -0.065580 0.017151
-0.036854 -0.066051 0.017020
-0.036571 -0.066522 0.016887
-0.036284 -0.066993 0.016751
-0.035992 -0.067464 0.016612
-0.035697 -0.067935 0.016471
-0.035397 -0.068405 0.016327
-0.035094 -0.068875 0.016180
-0.034786 -0.069345 0.016031
-0.034474 -0.069814 0.015880
-0.034158 -0.070283 0.015726
-0.033838 -0.070752 0.015569
-0.033514 -0.071220 0.015410
-0.033185 -0.071687 0.015249
-0.032852 -0.072154 0.015085
-0.032515 -0.072621 0.014919
-0.032174 -0.073086 0.014750
-0.031828 -0.073551 0.014579
-0.031479 -0.074015 0.014406
-0.031125 -0.074479 0.014231
-0.030766 -0.074941 0.014053
-0.030404 -0.075403 0.013873
-0.030037 -0.075864 0.013691
-0.029665 -0.076324 0.013507
-0.029290 -0.076783 0.013320
-0.028910 -0.077240 0.013132
-0.028525 -0.077697 0.012941
-0.028137 -0.078152 0.012748
-0.027744 -0.078607 0.012554
-0.027346 -0.079060 0.012357
-0.026944 -0.079512 0.012159
-0.026538 -0.079962 0.011958
-0.026127 -0.080411 0.011756
-0.025712 -0.080859 0.011551
-0.025292 -0.081305 0.011345
-0.024869 -0.081749 0.011138
-0.024440 -0.082192 0.010928
-0.024007 -0.082634 0.010717
-0.023570 -0.083073 0.010503
-0.023128 -0.083511 0.010289
-0.022682 -0.083948 0.010072
-0.022232 -0.084382 0.009855
-0.021777 -0.084814 0.009635
-0.021317 -0.085245 0.009414
-0.020853 -0.085674 0.009192
-0.020385 -0.086100 0.008968
-0.019912 -0.086525 0.008742
-0.019435 -0.086947 0.008516
-0.018953 -0.087367 0.008288
-0.018467 -0.087785 0.008058
-0.017977 -0.088201 0.007827
-0.017482 -0.088615 0.007596
-0.016983 -0.089026 0.007362
-0.016479 -0.089434 0.007128
-0.015971 -0.089840 0.006893
-0.015458 -0.090244 0.006656
-0.014941 -0.090645 0.006419
-0.014420 -0.091043 0.006180
-0.013894 -0.091439 0.005941
-0.013364 -0.091832 0.005700
-0.012830 -0.092222 0.005459
-0.012291 -0.092610 0.005217
-0.011748 -0.092994 0.004974
-0.011201 -0.093376 0.004730
-0.010649 -0.093754 0.004485
-0.010093 -0.094130 0.004240
-0.009533 -0.094502 0.003994
-0.008968 -0.094872 0.003748
-0.008399 -0.095238 0.003500
-0.007826 -0.095601 0.003253
-0.007249 -0.095960 0.003005
-0.006668 -0.096316 0.002756
-0.006082 -0.096669 0.002507
-0.005492 -0.097019 0.002257
-0.004898 -0.097365 0.002007
-0.004300 -0.097707 0.001757
-0.003698 -0.098046 0.001507
-0.003092 -0.098381 0.001256
-0.002481 -0.098712 0.001005
-0.001867 -0.099040 0.000754
-0.001249 -0.099364 0.000503
-0.000626 -0.099684 0.000251
-0.000000 -0.100000 0.000000
0.000630 -0.100312 -0.000251
0.001264 -0.100620 -0.000503
0.001903 -0.100924 -0.000754
0.002545 -0.101225 -0.001005
0.003190 -0.101520 -0.001256
0.003840 -0.101812 -0.001507
0.004493 -0.102100 -0.001757
0.005151 -0.102383 -0.002007
0.005812 -0.102662 -0.002257
0.006476 -0.102936 -0.002507
0.007144 -0.103206 -0.002756
0.007816 -0.103472 -0.003005
0.008492 -0.103733 -0.003253
0.009171 -0.103989 -0.003500
0.009854 -0.104241 -0.003748
0.010540 -0.104488 -0.003994
0.011229 -0.104730 -0.004240
0.011922 -0.104968 -0.004485
0.012619 -0.105201 -0.004730
0.013319 -0.105429 -0.004974
0.014022 -0.105652 -0.005217
0.014728 -0.105870 -0.005459
0.015438 -0.106083 -0.005700
0.016151 -0.106291 -0.005941
0.016867 -0.106494 -0.006180
0.017586 -0.106692 -0.006419
0.018309 -0.106885 -0.006656
0.019034 -0.107073 -0.006893
0.019762 -0.107255 -0.007128
0.020494 -0.107432 -0.007362
0.021228 -0.107604 -0.007596
0.021965 -0.107770 -0.007827
0.022705 -0.107931 -0.008058
0.023448 -0.108086 -0.008288
0.024194 -0.108236 -0.008516
0.024942 -0.108381 -0.008742
0.025693 -0.108519 -0.008968
0.026446 -0.108653 -0.009192
0.027203 -0.108780 -0.009414
0.027961 -0.108902 -0.009635
0.028722 -0.109018 -0.009855
0.029486 -0.109129 -0.010072
0.030252 -0.109233 -0.010289
0.031020 -0.109332 -0.010503
0.031791 -0.109425 -0.010717
0.032564 -0.109512 -0.010928
0.033339 -0.109593 -0.011138
0.034116 -0.109668 -0.011345
0.034895 -0.109737 -0.011551
0.035676 -0.109800 -0.011756
0.036459 -0.109857 -0.011958
0.037245 -0.109908 -0.012159
0.038032 -0.109953 -0.012357
0.038820 -0.109991 -0.012554
0.039611 -0.110024 -0.012748
0.040403 -0.110050 -0.012941
0.041197 -0.110070 -0.013132
0.041993 -0.110083 -0.013320
0.042790 -0.110090 -0.013507
0.043588 -0.110091 -0.013691
0.044388 -0.110086 -0.013873
0.045190 -0.110074 -0.014053
0.045992 -0.110056 -0.014231
0.046796 -0.110031 -0.014406
0.047601 -0.110000 -0.014579
0.048407 -0.109962 -0.014750
0.049215 -0.109918 -0.014919
0.050023 -0.109867 -0.015085
0.050832 -0.109810 -0.015249
0.051642 -0.109746 -0.015410
0.052453 -0.109675 -0.015569
0.053265 -0.109598 -0.015726
0.054078 -0.109514 -0.015880
0.054891 -0.109423 -0.016031
0.055704 -0.109326 -0.016180
0.056519 -0.109222 -0.016327
0.057333 -0.109111 -0.016471
0.058149 -0.108994 -0.016612
0.058964 -0.108870 -0.016751
0.059780 -0.108739 -0.016887
0.060596 -0.108601 -0.017020
0.061412 -0.108457 -0.017151
0.062228 -0.108305 -0.017278
0.063044 -0.108147 -0.017404
0.063860 -0.107982 -0.017526
0.064676 -0.107810 -0.017646
0.065492 -0.107631 -0.017763
0.066308 -0.107445 -0.017877
0.067123 -0.107253 -0.017988
0.067938 -0.107053 -0.018097
0.068753 -0.106847 -0.018202
0.069567 -0.106634 -0.018305
0.070380 -0.106414 -0.018405
0.071193 -0.106187 -0.018502
0.072005 -0.105952 -0.018596
0.072817 -0.105711 -0.018687
0.073627 -0.105464 -0.018775
0.074437 -0.105209 -0.018860
0.075245 -0.104947 -0.018942
0.076053 -0.104678 -0.019021
0.076860 -0.104402 -0.019097
0.077665 -0.104120 -0.019170
0.078469 -0.103830 -0.019241
0.079272 -0.103534 -0.019308
0.080073 -0.103230 -0.019372
0.080873 -0.102920 -0.019433
0.081672 -0.102602 -0.019491
0.082469 -0.102278 -0.019545
0.083264 -0.101947 -0.019597
0.084058 -0.101609 -0.019646
0.084850 -0.101263 -0.019691
0.085640 -0.100911 -0.019734
0.086428 -0.100552 -0.019773
0.087214 -0.100187 -0.019809
0.087998 -0.099814 -0.019842
0.088780 -0.099434 -0.019872
0.089560 -0.099048 -0.019899
0.090337 -0.098655 -0.019923
0.091112 -0.098255 -0.019943
0.091885 -0.097848 -0.019961
0.092655 -0.097434 -0.019975
0.093423 -0.097013 -0.019986
0.094188 -0.096586 -0.019994
0.094951 -0.096152 -0.019998
0.095711 -0.095711 -0.020000
0.096468 -0.095263 -0.019998
0.097222 -0.094809 -0.019994
0.097973 -0.094348 -0.019986
0.098721 -0.093880 -0.019975
0.099467 -0.093405 -0.019961
0.100209 -0.092924 -0.019943
0.100948 -0.092437 -0.019923
0.101683 -0.091942 -0.019899
0.102416 -0.091441 -0.019872
0.103144 -0.090934 -0.019842
0.103870 -0.090420 -0.019809
0.104592 -0.089900 -0.019773
0.105310 -0.089373 -0.019734
0.106025 -0.088839 -0.019691
0.106736 -0.088300 -0.019646
0.107443 -0.087753 -0.019597
0.108146 -0.087201 -0.019545
0.108846 -0.086642 -0.019491
0.109541 -0.086077 -0.019433
0.110233 -0.085505 -0.019372
0.110920 -0.084928 -0.019308
0.111603 -0.084344 -0.019241
0.112282 -0.083754 -0.019170
0.112957 -0.083157 -0.019097
0.113627 -0.082555 -0.019021
0.114293 -0.081947 -0.018942
0.114954 -0.081332 -0.018860
0.115611 -0.080712 -0.018775
0.116264 -0.080085 -0.018687
0.116911 -0.079453 -0.018596
0.117554 -0.078814 -0.018502
0.118192 -0.078170 -0.018405
0.118825 -0.077520 -0.018305
0.119454 -0.076865 -0.018202
0.120077 -0.076203 -0.018097
0.120696 -0.075536 -0.017988
0.121309 -0.074863 -0.017877
0.121917 -0.074185 -0.017763
0.122520 -0.073501 -0.017646
0.123118 -0.072812 -0.017526
0.123711 -0.072117 -0.017404
0.124298 -0.071417 -0.017278
0.124879 -0.070711 -0.017151
0.125456 -0.070000 -0.017020
0.126026 -0.069284 -0.016887
0.126591 -0.068562 -0.016751
0.127151 -0.067835 -0.016612
0.127705 -0.067103 -0.016471
0.128253 -0.066366 -0.016327
0.128795 -0.065624 -0.016180
0.129332 -0.064877 -0.016031
0.129862 -0.064126 -0.015880
0.130387 -0.063369 -0.015726
0.130906 -0.062607 -0.015569
0.131418 -0.061841 -0.015410
0.131925 -0.061070 -0.015249
0.132425 -0.060294 -0.015085
0.132919 -0.059513 -0.014919
0.133407 -0.058728 -0.014750
0.133889 -0.057939 -0.014579
0.134365 -0.057145 -0.014406
0.134834 -0.056347 -0.014231
0.135296 -0.055544 -0.014053
0.135752 -0.054737 -0.013873
0.136202 -0.053926 -0.013691
0.136645 -0.053111 -0.013507
0.137081 -0.052291 -0.013320
0.137511 -0.051468 -0.013132
0.137934 -0.050641 -0.012941
0.138351 -0.049809 -0.012748
0.138761 -0.048974 -0.012554
0.139164 -0.048135 -0.012357
0.139560 -0.047293 -0.012159
0.139949 -0.046446 -0.011958
0.140331 -0.045596 -0.011756
0.140706 -0.044743 -0.011551
0.141075 -0.043886 -0.011345
0.141436 -0.043026 -0.011138
0.141790 -0.042162 -0.010928
0.142138 -0.041295 -0.010717
0.142478 -0.040425 -0.010503
0.142811 -0.039551 -0.010289
0.143136 -0.038675 -0.010072
0.143455 -0.037795 -0.009855
0.143766 -0.036913 -0.009635
0.144070 -0.036028 -0.009414
0.144367 -0.035139 -0.009192
0.144656 -0.034249 -0.008968
0.144938 -0.033355 -0.008742
0.145212 -0.032459 -0.008516
0.145479 -0.031560 -0.008288
0.145739 -0.030659 -0.008058
0.145991 -0.029755 -0.007827
0.146236 -0.028849 -0.007596
0.146473 -0.027941 -0.007362
0.146703 -0.027031 -0.007128
0.146925 -0.026118 -0.006893
0.147139 -0.025204 -0.006656
0.147346 -0.024287 -0.006419
0.147545 -0.023369 -0.006180
0.147737 -0.022449 -0.005941
0.147921 -0.021527 -0.005700
0.148097 -0.020603 -0.005459
0.148265 -0.019677 -0.005217
0.148426 -0.018751 -0.004974
0.148579 -0.017822 -0.004730
0.148724 -0.016892 -0.004485
0.148862 -0.015961 -0.004240
0.148991 -0.015029 -0.003994
0.149113 -0.014095 -0.003748
0.149227 -0.013161 -0.003500
0.149334 -0.012225 -0.003253
0.149432 -0.011288 -0.003005
0.149523 -0.010351 -0.002756
0.149606 -0.009412 -0.002507
0.149680 -0.008473 -0.002257
0.149747 -0.007533 -0.002007
0.149807 -0.006593 -0.001757
0.149858 -0.005652 -0.001507
0.149901 -0.004711 -0.001256
0.149937 -0.003769 -0.001005
0.149964 -0.002827 -0.000754
0.149984 -0.001885 -0.000503
0.149996 -0.000942 -0.000251
3 0 1 2
3 0 2 3
3 0 3 4
3 0 4 5
3 0 5 6
3 0 6 7
3 0 7 8
3 0 8 9
3 0 9 10
3 0 10 11
3 0 11 12
3 0 12 13
3 0 13 14
3 0 14 15
3 0 15 16
3 0 16 17
3 0 17 18
3 0 18 19
3 0 19 20
3 0 20 21
3 0 21 22
3 0 22 23
3 0 23 24
3 0 24 25
3 0 25 26
3 0 26 27
3 0 27 28
3 0 28 29
3 0 29 30
3 0 30 31
3 0 31 32
3 0 32 33
3 0 33 34
3 0 34 35
3 0 35 36
3 0 36 37
3 0 37 38
3 0 38 39
3 0 39 40
3 0 40 41
3 0 41 42
3 0 42 43
3 0 43 44
3 0 44 45
3 0 45 46
3 0 46 47
3 0 47 48
3 0 48 49
3 0 49 50
3 0 50 51
3 0 51 52
3 0 52 53
3 0 53 54
3 0 54 55
3 0 55 56
3 0 56 57
3 0 57 58
3 0 58 59
3 0 59 60
3 0 60 61
3 0 61 62
3 0 62 63
3 0 63 64
3 0 64 65
3 0 65 66
3 0 66 67
3 0 67 68
3 0 68 69
3 0 69 70
3 0 70 71
3 0 71 72
3 0 72 73
3 0 73 74
3 0 74 75
3 0 75 76
3 0 76 77
3 0 77 78
3 0 78 79
3 0 79 80
3 0 80 81
3 0 81 82
3 0 82 83
3 0 83 84
3 0 84 85
3 0 85 86
3 0 86 87
3 0 87 88
3 0 88 89
3 0 89 90
3 0 90 91
3 0 91 92
3 0 92 93
3 0 93 94
3 0 94 95
3 0 95 96
3 0 96 97
3 0 97 98
3 0 98 99
3 0 99 100
